<?xml version="1.0" encoding="utf-8"?>
<!-- Generator: Adobe Illustrator 27.1.1, SVG Export Plug-In . SVG Version: 6.00 Build 0)  -->
<svg version="1.1" id="Layer_1" xmlns="http://www.w3.org/2000/svg" xmlns:xlink="http://www.w3.org/1999/xlink" x="0px" y="0px"
	 viewBox="0 0 120.2 120.2" style="enable-background:new 0 0 120.2 120.2;" xml:space="preserve">
<style type="text/css">
	.st0{fill:#B5B5B5;}
	.st1{opacity:0.35;fill:#B5B5B5;enable-background:new    ;}
	.st2{opacity:0.45;fill:#B5B5B5;enable-background:new    ;}
	.st3{opacity:0.25;fill:#B5B5B5;enable-background:new    ;}
</style>
<g>
	<path class="st0" d="M112.2,87.5c0-4.3-1.2-8.4-3.2-12c-2.2-3.8-5.4-7-9.2-9.2c-3.6-2-7.7-3.2-12.1-3.2H63.2v0c0,0,0,24.6,0,24.7
		c0,4.3,1.2,8.4,3.2,11.9c2.2,3.8,5.4,7,9.2,9.2c3.6,2,7.6,3.2,12,3.2c0,0,24.6,0,24.6,0l0,0V99.8C112.2,99.8,112.2,87.6,112.2,87.5
		z M87.5,99.8c-6.5-0.1-11.8-5.4-11.9-11.9V75.6v0h12.1c6.6,0,12,5.3,12.1,11.9v12.3L87.5,99.8L87.5,99.8z"/>
	<path class="st1" d="M112.2,112.2L112.2,112.2L99.8,99.8H87.5c-6.5-0.1-11.8-5.4-11.9-11.9V75.6L63.2,63.2c0,0,0,24.6,0,24.7
		c0,4.3,1.2,8.4,3.2,11.9c2.2,3.8,5.4,7,9.2,9.2c3.6,2,7.6,3.2,12,3.2C87.6,112.2,112.2,112.2,112.2,112.2z"/>
	<path class="st0" d="M57,63.2c0,0-24.6,0-24.7,0c-4.3,0-8.4,1.2-11.9,3.2c-3.8,2.2-7,5.4-9.2,9.2c-2,3.6-3.2,7.6-3.2,12
		c0,0,0,24.6,0,24.6l0,0h12.4c0,0,12.2,0,12.2,0c4.3,0,8.4-1.2,12-3.2c3.8-2.2,7-5.4,9.2-9.2c2-3.6,3.2-7.7,3.2-12.1L57,63.2
		L57,63.2z M44.6,87.7c0,6.6-5.3,12-11.9,12.1H20.4V87.5c0.1-6.5,5.4-11.8,11.9-11.9h12.3h0L44.6,87.7L44.6,87.7z"/>
	<path class="st2" d="M44.6,75.6v12.1c0,6.6-5.3,12-11.9,12.1H20.4l0,0L8,112.2h12.4c0,0,12.2,0,12.2,0c4.3,0,8.4-1.2,12-3.2
		c3.8-2.2,7-5.4,9.2-9.2c2-3.6,3.2-7.7,3.2-12.1V63.2h0L44.6,75.6L44.6,75.6z"/>
	<path class="st0" d="M57,32.3c0-4.3-1.2-8.4-3.2-11.9c-2.2-3.8-5.4-7-9.2-9.2C41,9.2,36.9,8,32.6,8C32.6,8,8,8,8,8l0,0v12.4
		c0,0,0,12.2,0,12.2c0,4.3,1.2,8.4,3.2,12c2.2,3.8,5.4,7,9.2,9.2c3.6,2,7.7,3.2,12.1,3.2H57v0C57,57,57,32.4,57,32.3z M44.6,44.6
		H32.5c-6.6,0-12-5.3-12.1-11.9V20.4h12.3c6.5,0.1,11.8,5.4,11.9,11.9V44.6L44.6,44.6z"/>
	<path class="st1" d="M44.6,44.6H32.5c-6.6,0-12-5.3-12.1-11.9V20.4l0,0L8,8v12.4c0,0,0,12.2,0,12.2c0,4.3,1.2,8.4,3.2,12
		c2.2,3.8,5.4,7,9.2,9.2c3.6,2,7.7,3.2,12.1,3.2H57v0L44.6,44.6L44.6,44.6z"/>
	<path class="st0" d="M99.8,8c0,0-12.2,0-12.2,0c-4.3,0-8.4,1.2-12,3.2c-3.8,2.2-7,5.4-9.2,9.2c-2,3.6-3.2,7.7-3.2,12.1V57h0
		c0,0,24.6,0,24.7,0c4.3,0,8.4-1.2,11.9-3.2c3.8-2.2,7-5.4,9.2-9.2c2-3.5,3.2-7.6,3.2-12c0,0,0-24.6,0-24.6l0,0
		C112.2,8,99.8,8,99.8,8z M99.8,32.7c-0.1,6.5-5.4,11.8-11.9,11.9H75.6h0V32.5c0-6.6,5.3-12,11.9-12.1h12.3V32.7z"/>
	<path class="st3" d="M112.2,8L112.2,8L99.8,20.4v12.3c-0.1,6.5-5.4,11.8-11.9,11.9H75.6L63.2,57c0,0,24.6,0,24.7,0
		c4.3,0,8.4-1.2,11.9-3.2c3.8-2.2,7-5.4,9.2-9.2c2-3.5,3.2-7.6,3.2-12C112.2,32.5,112.2,8,112.2,8z"/>
</g>
</svg>
